<svg xmlns="http://www.w3.org/2000/svg" xmlns:xlink="http://www.w3.org/1999/xlink" width="1080" zoomAndPan="magnify" viewBox="0 0 810 809.999993" height="1080" preserveAspectRatio="xMidYMid meet" version="1.0"><defs><clipPath id="061468a8d8"><path d="M 73.152344 33.628906 L 736.902344 33.628906 L 736.902344 776.128906 L 73.152344 776.128906 Z M 73.152344 33.628906 " clip-rule="nonzero"/></clipPath></defs><g clip-path="url(#061468a8d8)"><path fill="#a50e12" d="M 292.351562 412.164062 C 258.710938 445.730469 225.160156 479.414062 191.710938 513.195312 C 159.144531 546.082031 126.636719 579.101562 94.203125 612.242188 C 133.972656 610.128906 177.59375 626.523438 212.449219 653.535156 C 246.421875 679.859375 272.324219 716.449219 278.601562 756.054688 L 374.375 660.28125 C 379.089844 653.367188 382.117188 646.71875 383.441406 640.355469 C 384.691406 634.347656 384.40625 628.503906 382.582031 622.839844 C 377.671875 612.679688 376.335938 603.273438 377.515625 594.027344 C 378.664062 585.019531 382.21875 576.523438 387.148438 567.78125 C 393.464844 556.574219 392.464844 546.984375 384.148438 539.019531 L 360.191406 512.96875 C 359.835938 512.582031 359.519531 512.175781 359.238281 511.753906 C 352.378906 501.277344 348.714844 490.539062 348.238281 479.554688 C 347.859375 470.785156 349.542969 462.003906 353.277344 453.234375 L 309.703125 411.925781 C 307.261719 409.613281 304.109375 408.476562 300.988281 408.515625 C 297.867188 408.550781 294.746094 409.777344 292.351562 412.164062 Z M 409.226562 544.503906 C 407.386719 537.875 403.464844 531.640625 397.460938 525.804688 L 374.574219 500.890625 C 369.828125 493.449219 367.285156 486.066406 366.96875 478.746094 C 366.648438 471.230469 368.628906 463.511719 372.921875 455.613281 C 374.992188 451.804688 374.152344 447.195312 371.160156 444.335938 L 323.347656 399.011719 L 664.175781 58.152344 C 667.980469 54.347656 673.027344 52.445312 678.101562 52.445312 L 678.101562 52.40625 C 682.96875 52.40625 687.855469 54.203125 691.648438 57.785156 L 714.445312 80.609375 L 696.933594 85.199219 C 691.882812 86.375 688.742188 91.425781 689.917969 96.476562 L 696.050781 122.421875 L 670.90625 127.515625 C 665.898438 128.8125 662.890625 133.929688 664.1875 138.9375 L 670.234375 162.304688 L 646.449219 166.546875 C 641.359375 167.539062 638.039062 172.472656 639.03125 177.5625 L 644.871094 207.078125 L 615.539062 213.574219 C 615.015625 213.65625 614.496094 213.78125 613.980469 213.957031 C 609.074219 215.621094 606.441406 220.949219 608.105469 225.859375 L 617.28125 252.714844 L 586.449219 258.574219 C 581.382812 259.6875 578.175781 264.703125 579.289062 269.773438 L 586.289062 301.566406 L 558.210938 303.664062 C 557.335938 303.726562 556.457031 303.914062 555.597656 304.234375 C 550.75 306.035156 548.285156 311.433594 550.089844 316.28125 L 561.5 346.703125 L 531.769531 352.246094 C 526.738281 353.484375 523.664062 358.566406 524.902344 363.597656 L 533.570312 398.332031 L 496.320312 405.484375 C 495.578125 405.625 494.839844 405.859375 494.117188 406.195312 C 489.433594 408.382812 487.410156 413.960938 489.601562 418.644531 L 503.457031 448.332031 L 464.148438 453.1875 C 463.136719 453.296875 462.125 453.578125 461.15625 454.042969 C 456.472656 456.273438 454.480469 461.882812 456.710938 466.566406 L 471.039062 496.625 L 437.582031 498.730469 C 436.402344 498.804688 435.222656 499.101562 434.09375 499.644531 C 429.429688 501.894531 427.472656 507.507812 429.722656 512.171875 L 445.15625 544.003906 Z M 305.667969 390.109375 L 650.886719 44.894531 C 658.421875 37.402344 668.277344 33.640625 678.101562 33.640625 L 678.101562 33.675781 C 687.714844 33.675781 697.328125 37.238281 704.738281 44.359375 L 705.316406 44.886719 L 739.304688 78.878906 C 740.425781 80.027344 741.289062 81.472656 741.726562 83.136719 C 743.042969 88.144531 740.050781 93.28125 735.042969 94.597656 L 710.308594 101.089844 L 716.566406 127.542969 L 716.539062 127.550781 L 716.597656 127.835938 C 717.613281 132.90625 714.324219 137.84375 709.253906 138.855469 L 684.804688 143.804688 L 690.910156 167.386719 L 691.054688 168.085938 C 691.964844 173.175781 688.578125 178.042969 683.488281 178.957031 L 659.3125 183.292969 L 665.078125 212.4375 C 666.027344 217.417969 662.855469 222.285156 657.878906 223.382812 L 629.257812 229.722656 L 638.542969 256.894531 C 638.679688 257.308594 638.789062 257.734375 638.875 258.179688 C 639.824219 263.269531 636.472656 268.171875 631.382812 269.125 L 599.726562 275.15625 L 606.980469 308.105469 C 607.066406 308.546875 607.132812 309 607.164062 309.464844 C 607.527344 314.632812 603.632812 319.128906 598.460938 319.492188 L 572.039062 321.449219 L 582.855469 350.289062 C 583.101562 350.882812 583.289062 351.519531 583.414062 352.183594 C 584.34375 357.273438 580.972656 362.15625 575.882812 363.089844 L 545.523438 368.746094 L 554.292969 403.921875 C 555.265625 409.011719 551.929688 413.929688 546.839844 414.902344 L 511.664062 421.632812 L 525.550781 451.386719 C 526.160156 452.449219 526.574219 453.648438 526.734375 454.941406 C 527.359375 460.089844 523.691406 464.78125 518.542969 465.40625 L 479.289062 470.253906 L 493.980469 501.078125 C 494.472656 502.132812 494.789062 503.292969 494.863281 504.527344 C 495.1875 509.699219 491.257812 514.15625 486.085938 514.480469 L 452.710938 516.582031 L 468.46875 549.085938 C 469.039062 550.289062 469.371094 551.632812 469.386719 553.054688 C 469.445312 558.222656 465.300781 562.46875 460.128906 562.527344 L 409.152344 563.238281 C 408.011719 567.671875 406.113281 572.246094 403.453125 576.964844 C 399.628906 583.746094 396.902344 590.113281 396.101562 596.378906 C 395.371094 602.136719 396.289062 608.164062 399.574219 614.894531 C 399.8125 615.34375 400.019531 615.816406 400.191406 616.316406 C 403.25 625.351562 403.789062 634.644531 401.804688 644.175781 C 399.960938 653.027344 395.910156 662.003906 389.660156 671.101562 C 389.253906 671.820312 388.742188 672.5 388.125 673.113281 L 290.007812 771.234375 C 287.648438 773.589844 284.769531 775.175781 281.644531 775.90625 C 278.578125 776.628906 275.3125 776.480469 272.128906 775.410156 C 269.277344 774.449219 266.8125 772.835938 264.863281 770.730469 L 264.214844 770.023438 C 262.1875 767.574219 260.863281 764.566406 260.410156 761.226562 C 255.601562 725.761719 232.101562 692.484375 200.988281 668.375 C 168.59375 643.265625 128.199219 628.285156 92.1875 631.203125 C 88.5625 631.496094 85.0625 630.675781 82.050781 628.921875 C 79.058594 627.183594 76.601562 624.539062 75.035156 621.199219 C 73.472656 617.875 73.007812 614.3125 73.585938 610.925781 C 74.171875 607.460938 75.777344 604.222656 78.328125 601.617188 L 78.367188 601.617188 C 111.578125 567.671875 144.929688 533.785156 178.414062 499.972656 C 211.878906 466.179688 245.453125 432.472656 279.128906 398.871094 C 285.089844 392.921875 292.90625 389.886719 300.765625 389.785156 C 302.40625 389.765625 304.042969 389.875 305.667969 390.109375 Z M 219.945312 542.140625 C 245.261719 549.75 268.0625 562.640625 287.113281 579.703125 C 306.285156 596.875 321.613281 618.234375 331.851562 642.671875 C 332.199219 643.507812 332.417969 644.371094 332.515625 645.230469 C 333.503906 651.824219 332.328125 658.5 329.425781 664.382812 C 326.488281 670.332031 321.769531 675.496094 315.730469 678.960938 C 309.636719 682.457031 302.832031 683.84375 296.332031 683.21875 C 289.652344 682.578125 283.304688 679.8125 278.332031 675.039062 C 277.609375 674.34375 277.023438 673.558594 276.574219 672.722656 C 267.34375 655.695312 255.957031 640.945312 242.417969 628.488281 C 228.875 616.027344 213.121094 605.8125 195.171875 597.859375 C 193.882812 597.246094 192.53125 596.6875 191.214844 596.128906 C 189.597656 595.449219 188.265625 594.359375 187.296875 593.035156 C 183.566406 587.996094 181.617188 581.964844 181.46875 575.765625 C 181.324219 569.734375 182.90625 563.566406 186.21875 558.050781 C 189.527344 552.554688 194.230469 548.199219 199.628906 545.359375 C 205.128906 542.472656 211.359375 541.101562 217.582031 541.636719 C 218.40625 541.703125 219.199219 541.875 219.945312 542.140625 Z M 274.625 593.65625 C 291.402344 608.6875 304.898438 627.375 314.054688 648.773438 C 314.261719 651.265625 313.734375 653.796875 312.605469 656.085938 C 311.289062 658.75 309.152344 661.082031 306.402344 662.65625 C 303.710938 664.199219 300.800781 664.824219 298.09375 664.5625 C 295.976562 664.359375 293.953125 663.605469 292.269531 662.324219 C 282.183594 644.066406 269.800781 628.183594 255.125 614.679688 C 240.042969 600.800781 222.578125 589.464844 202.738281 580.667969 L 201.289062 580.054688 C 200.601562 578.578125 200.234375 576.96875 200.195312 575.324219 C 200.140625 572.78125 200.839844 570.113281 202.304688 567.671875 C 203.78125 565.214844 205.914062 563.253906 208.371094 561.960938 C 210.480469 560.855469 212.832031 560.269531 215.203125 560.320312 C 237.660156 567.175781 257.820312 578.609375 274.625 593.65625 Z M 274.625 593.65625 " fill-opacity="1" fill-rule="evenodd"/></g></svg>